<svg xmlns="http://www.w3.org/2000/svg" viewBox="0 0 512 512"><defs><style>.cls-1{fill:#55acee}.cls-2{fill:#fff}</style></defs><title>Fichier 1</title><g id="Calque_2" data-name="Calque 2"><g id="Layer_1" data-name="Layer 1"><path class="cls-1" d="M512 448a64.19 64.19 0 0 1-64 64H64a64.19 64.19 0 0 1-64-64V64A64.19 64.19 0 0 1 64 0h384a64.19 64.19 0 0 1 64 64z"/><path class="cls-2" d="M435.15 151.55a143.66 143.66 0 0 1-41.4 11.35 72.26 72.26 0 0 0 31.69-39.9 144.29 144.29 0 0 1-45.77 17.49 72.14 72.14 0 0 0-122.82 65.74 204.62 204.62 0 0 1-148.56-75.3 72.14 72.14 0 0 0 22.3 96.22 71.77 71.77 0 0 1-32.65-9v.91a72.12 72.12 0 0 0 57.81 70.67 72.14 72.14 0 0 1-32.54 1.27 72.14 72.14 0 0 0 67.33 50 145.62 145.62 0 0 1-106.71 29.85 204 204 0 0 0 110.49 32.38c132.57 0 205.07-109.83 205.07-205.07 0-3.12-.08-6.24-.22-9.32a145.84 145.84 0 0 0 36-37.3"/></g></g></svg>