<svg id="Calque_1" xmlns="http://www.w3.org/2000/svg" xmlns:xlink="http://www.w3.org/1999/xlink" viewBox="0 0 312.7 128.7"><style>logo in red .st0{clip-path:url(#SVGID_2_)}.st1{clip-path:url(#SVGID_4_);fill:#be1e2d}.st2,.st3{clip-path:url(#SVGID_6_);fill:#fff}.st3{fill:#74c7f0;stroke:#ae3034;stroke-width:2;stroke-miterlimit:10}.st4{clip-path:url(#SVGID_8_)}.st5,.st6{clip-path:url(#SVGID_10_);fill:#fff}.st6{clip-path:url(#SVGID_12_)}.st7{clip-path:url(#SVGID_14_)}.st8,.st9{clip-path:url(#SVGID_16_)}.st8{display:none}.st9{fill:#aa2633}</style><defs><path id="SVGID_1_" d="M-153.6-145.6h595.2v841.8h-595.2z"/></defs><clipPath id="SVGID_2_"><use xlink:href="#SVGID_1_" overflow="visible"/></clipPath><g class="st0"><defs><path id="SVGID_3_" d="M-153.7-145.6h595.3v841.9h-595.3z"/></defs><clipPath id="SVGID_4_"><use xlink:href="#SVGID_3_" overflow="visible"/></clipPath><path class="st1" d="M565.4 125.6h595.2v841.8H565.4z"/></g><defs><path id="SVGID_5_" d="M3.7 3.3h307.1v128.1H3.7z"/></defs><clipPath id="SVGID_6_"><use xlink:href="#SVGID_5_" overflow="visible"/></clipPath><path class="st2" d="M132.5 95.4L107 49.6h24.7l12.1 26.7 12.6-26.7h24.4l-26 45.8v26.7h-22.3M205.3 47.8c22.1 0 36.8 15.9 36.8 38 0 22.2-14.7 38-36.8 38-22 0-36.8-15.9-36.8-38s14.7-38 36.8-38m0 57.9c5.7 0 14.4-3.8 14.4-19.9 0-16.2-8.7-19.9-14.4-19.9-5.7 0-14.4 3.8-14.4 19.9 0 16.2 8.7 19.9 14.4 19.9"/><path class="st3" d="M-198 273.6c-4 1.1-6.9 3.9-6.9 8.7 0 5.7 4.3 9 9.8 9 2.1 0 4.5-.7 6.3-1.9l-9.2-15.8m3.3 34.5c-15.9 0-28.5-9.3-28.5-25.8 0-11.9 6.9-20.3 16.2-23.8l-5.9-10.8h-5.3v-16.9h59.3v16.9h-33.4l19 33 14.5-7.8v20l-5.8 3.3 6.5 11.2h-20.2l-1.8-2.8c-4.2 2.4-9.2 3.5-14.6 3.5"/><g><defs><path id="SVGID_7_" d="M3.7 3.3h306.1v122.4H3.7z"/></defs><clipPath id="SVGID_8_"><use xlink:href="#SVGID_7_" overflow="visible"/></clipPath><g class="st4"><defs><path id="SVGID_9_" d="M-153.7-145.6h595.3v841.9h-595.3z"/></defs><clipPath id="SVGID_10_"><use xlink:href="#SVGID_9_" overflow="visible"/></clipPath><path class="st5" d="M309.7 94.1c0 20.1-10.9 29.8-33 29.8-22.2 0-33.1-9.7-33.1-29.8V49.6H266v39.5c0 7.4 0 16.7 10.9 16.7 10.6 0 10.6-9.2 10.6-16.7V49.6h22.4"/></g></g><g><defs><path id="SVGID_11_" d="M1.7 1.3h310.1v127.4H1.7z"/></defs><clipPath id="SVGID_12_"><use xlink:href="#SVGID_11_" overflow="visible"/></clipPath><path class="st6" d="M90.3 19.8h12.1c8 0 10.8 5.9 10.8 11.9 0 7.3-3.9 12-12.2 12H90.3m7.4-6h2.9c4.6 0 5.3-3.7 5.3-6 0-1.5-.5-5.7-5.8-5.7h-2.3v11.7zM116.4 19.8h7.4v24h-7.4zM145.1 41.4c-1.6 2.1-4.2 3-6.8 3-7.1 0-11.4-5.5-11.4-12.3 0-9.1 6.4-12.8 11.8-12.8 6.1 0 10 3.3 11 9h-7.1c-.3-1.7-1.7-3-3.5-3-5.1 0-4.9 5.3-4.9 7 0 2.2.9 6.2 5.4 6.2 1.7 0 3.5-.9 3.8-2.7h-3.3v-5.1h9.8v13.2h-4.7M153.7 19.8h7.4v24h-7.4zM170.4 26h-6.7v-6.2h20.8V26h-6.7v17.8h-7.4M191.4 19.8h7.2l8.7 24h-7.6l-1-3.4h-7.6l-1.1 3.4h-7.4m14.6-8.6l-2.1-7.4h-.1l-2.3 7.4h4.5zM209 19.8h7.4v17.9H227v6.1h-18"/></g><g><defs><path id="SVGID_13_" d="M3.7 3.3h306.1v122.4H3.7z"/></defs><clipPath id="SVGID_14_"><use xlink:href="#SVGID_13_" overflow="visible"/></clipPath><g class="st7"><defs><path id="SVGID_15_" d="M-153.7-145.6h595.3v841.9h-595.3z"/></defs><clipPath id="SVGID_16_"><use xlink:href="#SVGID_15_" overflow="visible"/></clipPath><path class="st8" d="M61.7 34.7c-2.8-5.4-6-7.6-11.2-7.6-6.2 0-10.9 5.5-10.9 11.2 0 6.1 5 11.2 11.2 11.2H59v23.2H47.9c-7.3 0-13.1 6.4-13.1 12.8 0 8.1 5.9 14.3 14.5 14.3 12.6 0 21.1-10 21.1-26.1V49.6h38.2v23.2H97.3v7.1c0 26.3-18.8 45.8-48.4 45.8-26.6 0-45.3-15.9-45.3-39.4 0-11.2 6.4-24.4 18-28.9-6.9-4-11.2-11.1-11.2-20.9C10.4 16.9 27 3.3 49.5 3.3c16.9 0 29.7 8.1 34.4 18-2.5 1.7-19.4 11.9-22.2 13.4"/><path class="st9" d="M49 125.7c-26.6 0-45.3-15.9-45.3-39.4 0-11.2 6.4-24.4 18-28.9-6.9-4-11.2-11.1-11.2-20.9-.1-19.6 16.5-33.2 39-33.2 16.9 0 29.7 8.1 34.4 18-2.4 1.7-19.4 11.9-22.1 13.4-2.8-5.4-6.1-7.6-11.2-7.6-6.2 0-10.9 5.5-10.9 11.2 0 6.1 5 11.2 11.2 11.2H59v23.2H47.9c-7.3 0-13.1 6.4-13.1 12.8 0 8.1 5.9 14.4 14.5 14.4 12.6 0 21.1-10 21.1-26.1v-1-23.2h38.2v23.2H97.4v7.1c0 26.3-18.9 45.8-48.4 45.8"/></g></g><g><defs><path id="SVGID_17_" d="M-153.7-145.6h595.3v841.9h-595.3z"/></defs><clipPath id="SVGID_18_"><use xlink:href="#SVGID_17_" overflow="visible"/></clipPath></g></svg>