<svg id="Calque_1" xmlns="http://www.w3.org/2000/svg" viewBox="0 0 202.5 112.6"><style>.st0{fill:#fff}</style><path d="M99.7 92.5c0-.8.1-2.5.5-6.3 1-11.2 3.4-37.4 2.1-59.7l-.2-2.9 2.8-.3c.9-.1 7.5-1.5 12.2-2.5 2.9-.6 5.6-1.2 7.6-1.6l3.7-.8-.1 3.8c-.1 2.2-.3 6.2-.5 11.1 1.5-5.9 3.1-11.9 4.3-16.9l.5-1.9 1.9-.3c.3-.1 8.1-1.4 10.9-1.8l3.9-.5-.6 3.9c-.4 2.8-1.1 9.7-1.9 18.7 1.2-4.9 2.4-9.6 3.5-13.4l.5-1.8 1.8-.3c1.3-.2 3.3-.6 5.5-.9 5.1-.9 12.1-2.1 15-2.6l5.5-1.1-2.2 5.2c-4.8 11.2-17 53.6-18.8 66.7l-.3 2.1-2.1.4c-.2 0-20.5 3.9-23.7 4.4l-3.6.6.2-3.7c0-.8.1-1.6.1-2.4-.1.4-.8 3.1-.8 3.1l-1.9.3c-2.7.4-18 3.5-22.1 4.5l-3.6.9-.1-4z"/><path d="M76.4 104.7c-2.5.1-4.9-.4-7-1.3-8.4-3.9-13-11.7-13.4-22.7-.3-9.3 2.4-19 4.1-23.9 4-11.8 17.3-28.4 31.8-28.9 1.9-.1 3.7.1 5.5.6 4.6 1.2 8.1 4 10.5 8.3 1.7 3.1 3.7 8.8 3.4 18.1-.2 5.5-1.3 11.8-2.8 16.6-3 9.4-7.8 17.6-13.7 23.7-5.8 5.8-12.3 9.3-18.4 9.5zM90 55.3c-3 .1-7 4.7-10.8 12.4-1.9 3.9-3.1 9.8-1.8 13.1.5 1.4 1.3 1.8 1.9 2 .8.3 1.7.5 2.5.4 3.9-.1 7.6-4.2 9.9-10.5 2.3-6.6 1.7-13.7-.1-16.6-.2-.3-.7-.9-1.1-1-.2.2-.3.2-.5.2zM181.5 72l1.9-14.1-5 1.4 2.9-17.2-5.1 1.9.9-5.1c1.3-7 5-24 6.4-28.4l.4-1.4 1.4-.5c5-1.8 11.1-3.9 12.1-4.1l4.3-.8-.8 4.3c-.3 1.4-2.7 10.5-4.3 16.4l5.1-1.3-5.3 15.7 5.4-1.6-14.7 36.3-5.6-1.5z"/><path d="M5 108.7c0-.8.1-2.5.5-6.3 1-11.2 3.4-37.4 2.1-59.7l-.2-2.9 2.8-.3c.9-.1 7.5-1.5 12.2-2.5 2.9-.6 5.6-1.2 7.6-1.6l3.7-.8-.1 3.8c-.1 2.2-.3 6.2-.5 11.1 1.5-5.9 3.1-11.9 4.3-16.9l.5-1.9 1.9-.3c.3-.1 8.1-1.4 10.9-1.8l3.9-.5L54 32c-.4 2.7-1 9.1-1.8 17.5 2.1-8.5 4.4-16.7 6.5-22.8l.6-1.6 1.7-.3c1.2-.2 3-.5 5.2-.9 5.1-.9 12.1-2.1 15.3-2.7L87 20l-2.2 5.2c-4.9 11.4-20.1 64-21.9 77.1l-.3 2.1-2.1.4c-.2 0-20.5 3.9-23.7 4.4l-3.6.6.2-3.7c0-.8.1-1.6.1-2.4-.1.4-.8 3.1-.8 3.1l-1.9.3c-2.7.4-18 3.5-22.1 4.5l-3.7.8v-3.7zM179 76.2l13.9-3.7-1.1 13.6-14.2 3.9zM95 88.9c0-.8.1-2.5.5-6.3 1-11.2 3.4-37.4 2.1-59.7l-.2-2.9 2.8-.3c.9-.1 7.5-1.5 12.2-2.5 2.9-.6 5.6-1.2 7.6-1.6l3.7-.8-.1 3.8c-.1 2.2-.3 6.2-.5 11.1 1.5-5.9 3.1-11.9 4.3-16.9l.5-1.9 1.9-.3c.3-.1 8.1-1.4 10.9-1.8l3.9-.5-.6 3.9c-.4 2.8-1.1 9.7-1.9 18.7 1.2-4.9 2.4-9.6 3.5-13.4l.5-1.8 1.8-.3c1.3-.2 3.3-.6 5.5-.9 5.1-.9 12.1-2.1 15-2.6l5.5-1.1-2.2 5.2C167 27 154.8 69.5 153 82.5l-.3 2.1-2.1.4c-.2 0-20.5 3.9-23.7 4.4l-3.6.6.2-3.7c0-.8.1-1.6.1-2.4-.1.4-.8 3.1-.8 3.1l-1.9.3c-2.7.4-18 3.5-22.1 4.5l-3.8.9v-3.8z"/><path class="st0" d="M100.5 22.7c1.8 28.7-2.6 62.9-2.5 66.2 4.3-1 19.7-4.2 22.4-4.5 1.7-6.2 7.5-28.5 8.7-32.7-1.1 13.1-2.1 24.3-2.6 34.8 3.1-.5 22.3-4.1 23.6-4.4 1.8-13.3 14-55.7 19-67.5-4.2.8-16.3 2.8-20.6 3.6-4.5 15.8-10.9 46-12.8 52.2 1.5-18.2 4.4-51.3 5.5-58.6-2.9.4-10.8 1.8-10.8 1.8-3.8 15.6-10.6 40.5-12.2 46.6 1.3-14.5 2.4-35.6 2.6-41.6-5.9 1.1-18.8 3.9-20.3 4.1z"/><path d="M71.7 101.1c-2.5.1-4.9-.4-7-1.3-8.4-3.8-13-11.6-13.4-22.6-.3-9.3 2.4-19 4.1-23.9 4-11.8 17.3-28.4 31.8-28.9 1.9-.1 3.7.1 5.5.6 4.6 1.2 8.1 4 10.5 8.3 1.7 3.1 3.7 8.8 3.4 18.1-.2 5.5-1.3 11.8-2.8 16.6-3 9.4-7.8 17.6-13.7 23.7-5.8 5.8-12.4 9.2-18.4 9.4zm13.6-49.3c-3 .1-7 4.7-10.8 12.4-1.9 3.9-3.1 9.8-1.8 13.1.5 1.4 1.3 1.8 1.9 2 .8.3 1.7.5 2.5.4 3.9-.1 7.6-4.2 9.9-10.5 2.3-6.6 1.7-13.7-.1-16.6-.2-.3-.7-.9-1.1-1-.3.2-.4.2-.5.2z"/><path class="st0" d="M89.7 70.3c-3.3 9.5-9.8 14.3-16.2 11.9-6.4-2.4-4.6-13.3-1.7-19.2 3-5.9 8.2-14.5 14.1-14.1 5.3.4 7.1 11.9 3.8 21.4zM92 27.7c-15.2-3.9-30 15-33.8 26.4-3.9 11.4-9.1 35.3 7.7 42.9 11.2 5.1 27.8-7.8 35.1-30.1 3.6-11 6.1-35.3-9-39.2z"/><path d="M176.8 68.4l1.9-14.1-5 1.4 2.9-17.2-5.1 1.9.9-5.1c1.3-7 5-24 6.4-28.4l.4-1.4 1.4-.5c5-1.8 11.1-3.9 12.1-4.1l4.3-.8-.8 4.3c-.3 1.4-2.7 10.5-4.3 16.4l5.1-1.3-5.3 15.7 5.4-1.6-14.7 36.3-5.6-1.5z"/><path class="st0" d="M181.6 7.8s10.6-3.8 11.7-4c-.4 2-5.5 21.1-5.5 21.1l4.7-1.2-5.4 16 5-1.5-12.4 30.6 2.5-18.6-4.9 1.4 3-17.6-5 1.8c1.3-6.8 5-23.8 6.3-28z"/><path d="M.2 105.2c0-.8.1-2.5.5-6.3 1-11.2 3.4-37.4 2-59.7l-.2-2.9 3-.3c.9-.1 7.5-1.5 12.2-2.5 2.9-.6 5.6-1.2 7.6-1.6l3.7-.8-.1 3.8c-.1 2.2-.3 6.2-.5 11.1 1.5-5.9 3.1-11.9 4.3-16.9l.5-1.9 1.9-.3c.3-.1 8.1-1.4 10.9-1.8l3.9-.5-.6 3.9c-.4 2.7-1 9.1-1.8 17.5 2.1-8.5 4.4-16.7 6.5-22.8l.6-1.6 1.7-.3c1.2-.2 3-.5 5.2-.9 5.1-.9 12.1-2.1 15.3-2.7l5.5-1.1-2.2 5.2C75.2 33 60 85.7 58.2 98.8l-.3 2.1-2.1.4c-.2 0-20.5 3.9-23.7 4.4l-3.6.6.2-3.7c0-.8.1-1.6.1-2.4-.1.4-.8 3.1-.8 3.1l-1.9.3c-2.7.4-18 3.5-22.1 4.5l-3.6.9-.2-3.8z"/><path class="st0" d="M5.8 38.9c1.8 28.7-2.6 62.9-2.5 66.2 4.3-1 19.7-4.2 22.4-4.5 1.7-6.2 7.5-28.5 8.7-32.7-1.1 13.1-2.1 24.3-2.6 34.8 3.1-.5 22.3-4.1 23.6-4.4 1.7-13.3 16.9-66 22-77.8-4.6.9-16.6 2.9-20.6 3.6-6.5 18.5-14 56.3-15.9 62.5 1.5-18.2 4.4-51.3 5.5-58.6-2.9.4-10.8 1.8-10.8 1.8C31.7 45.3 25 70.2 23.3 76.3c1.3-14.5 2.4-35.6 2.6-41.6-5.8 1.2-18.7 4.1-20.1 4.2z"/><path d="M174.3 72.6l13.9-3.6-1.2 13.6-14.1 3.8z"/><path class="st0" d="M177.1 75l7.8-2.1-.7 7.4-7.9 2.1z"/></svg>