<svg xmlns="http://www.w3.org/2000/svg" version="1" width="881.825" height="883.326"><defs><linearGradient id="b"><stop offset="0" stop-color="#205eb3"/><stop offset=".346" stop-color="#01adef"/><stop offset="1" stop-color="#1a6abd"/></linearGradient><linearGradient id="a"><stop offset="0" stop-color="#04abec"/><stop offset="1" stop-color="#1e60b4"/></linearGradient><linearGradient id="d"><stop offset="0" stop-color="#a4223c"/><stop offset=".638" stop-color="#e83347"/><stop offset="1" stop-color="#e51736"/></linearGradient><linearGradient id="c"><stop offset="0" stop-color="#df1935"/><stop offset="1" stop-color="#a3223b"/></linearGradient></defs><path d="M0 0v883.326h881.825V0H0z" fill="#213683"/><path d="M546.702 436.16L881.825 0h-49.518L495.683 436.16h51.019" fill="#da2825" fill-rule="evenodd"/><path d="M673.749 627.231c10.803 30.095 19.648 61.59 30.01 92.034 6.728 18.732 17.257 56.913 29.511 72.027h-83.03c.075-23.742-9.287-45.559-15.506-68.025-5.394-15.64-9.312-31.654-15.005-47.518l-1.5-6.002-1.502-5.002-1.5-4.001-1-4.002-1-2.5-.5-1.501v-.5h-132.05l-21.007 29.51.5.5.5 2.502 1.5 4.001 1.501 5.002 2 6.002c3.969 11.93 7.52 24.25 11.505 36.013 8.653 27.677 8.762 29.203 23.509 55.52h-79.53c-1.7-16.78-5.077-26.976-10.003-43.015-13.189 14.13-22.6 25.201-30.512 43.016h-62.022c-3.26-18.34-4.702-26.927-11.505-45.017-13.73 18.757-19.19 22.825-29.51 45.017H216.08c27.243-24.884 49.443-56.804 72.026-86.032l-15.505-53.02H141.552v.5l-3 3.002-2.002 3.001-2.5 3.501-3.002 4.002-3.501 5.002-4.001 4.501c-11.255 15.823-23.793 30.695-35.013 46.517-16.848 22.042-36.714 44.509-49.519 69.026H0v-25.01l1.5-1.5H2v-.5l2.001-2 1-1.501c3.494-3.602 5.886-8.053 9.504-11.505 9.362-11.512 18.44-23.25 27.51-35.013 25.843-32.67 51.07-65.682 76.029-99.036 34.579-48.451 82.572-98.42 106.039-152.556h67.525c1.425 35.813 11.804 54.253 21.007 88.032 5.786 18.315 11.213 36.739 17.007 55.02l2 6.003 3.001 11.004 1.501 4.001 1 4.002 1 3 1.001 2.502.5 1.5v.5l23.009-29.01c-13.08-32.937-27.769-103.522-51.019-146.554h79.03c-.826 17.673 6.076 30.336 10.003 47.017 4.676 15.256 8.17 30.911 13.005 46.017 10.128-13.48 21.282-26.927 31.511-40.515 11.588-16.498 30.386-31.045 32.012-52.52H543.2c-38.622 35.997-75.67 91.96-110.04 133.55 3.826 11.888 6.786 24.142 10.504 36.013 21.166-27.293 42.332-54.737 63.023-82.53 19.424-26.927 45.967-56.571 59.022-87.032h64.523v3l.5 7.504 1.501 8.003 1 6.002L673.75 627.23zm-98.037-101.537c-16.823 30.136-43.574 60.472-65.024 88.032h88.033c-4.277-13.988-9.045-28.46-13.505-42.515l-2-7.003-2.002-6.002-1.5-5.002-1-4.001-1.501-10.004v-13.005l-.5-1v-.5l-1 1zm-338.124 0c-9.129 16.364-22.25 33.946-34.013 48.518-6.327 8.728-13.488 16.914-20.007 25.51l-3.001 4-2.501 3.502-2.501 2.5-1.5 2.002-1.501 1.5v.5h88.032c-4.693-13.588-9.153-28.702-13.505-42.515l-2-7.003-2.001-6.002-1.5-5.002-1.001-4.001-1.5-10.004-.501-8.503v-5.502l-.5-.5-.5 1zM370.137 731.27l24.008-33.513c-5.885-14.413-10.787-29.185-15.505-44.016l-23.509 30.511 15.006 47.018" fill="#fff" fill-rule="evenodd"/></svg>