<svg xmlns="http://www.w3.org/2000/svg" viewBox="0 0 336.39 322.52"><title>Fichier 1</title><g data-name="Layer 1"><path d="M62.21 48.5C69.16 21.12 113.76 0 167.75 0s98.59 21.12 105.55 48.5h.95l7 83.46s-25.5 10-115.5 10c-85.5 0-111.49-10-111.49-10l7-83.46z"/><path d="M.26 151.3c15.5-34.88 75.21 1.66 168 1.66s153.49-43.84 168 3.34c2.23 7.25-22 33.51-60.25 55-1.71-12.35-5.37-22-12.17-25.29-27.15-13.15-176-14-192.49 1-4.89 4.44-7.71 12.94-9.16 23.35-39.74-23.21-65.07-52-61.93-59.06zM103.8 301c13.09-3.29 20.83-27.06 39-27.06 10.9 0 17.39 5.36 19.73 12 2.36-6.63 8.84-12 19.74-12 18.15 0 25.88 23.77 39 27.06 18.53 4.65 38.79-10.72 38.79-10.72s-3.89 13.46-19.4 23.48c-17.36 11.23-42.54 10.72-59.8 3.57-11.56-4.78-16.44-11.08-18.31-17.55-1.85 6.47-6.72 12.77-18.29 17.55-17.26 7.15-42.44 7.66-59.8-3.57-15.5-10-19.4-23.48-19.4-23.48S85.27 305.69 103.8 301z"/><path d="M187.31 224.15a31.42 31.42 0 1 1 31.42 31.42 31.45 31.45 0 0 1-31.42-31.42zm6.11 0a25.3 25.3 0 1 0 25.3-25.3 25.33 25.33 0 0 0-25.3 25.3z"/><path d="M245.34 226.7h5.24v60.28h-5.24z"/></g></svg>