<svg xmlns="http://www.w3.org/2000/svg" width="591.032" height="126.267" viewBox="0 0 554.09249 118.375"><path d="M52.683 114.928c-2.783-5.716-9.433-9.58-17.472-9.58-9.898 0-21.185 3.243-32.164 10.511l-1.392-1.85c8.04-9.904 25.668-21.348 40.05-21.186 13.607 0 19.33 5.094 22.885 9.43l3.71-2.323 1.857 3.715-17.474 11.283zM27.015 87.865l-.31.31c.155-1.39.31-3.391.464-5.404.619-13.308-5.72-30.467-5.257-43.613.155-5.405 2.01-10.512 4.948-14.998-1.701 3.716-2.474 7.729-2.628 11.904-.154 6.809 1.08 14.538 2.472 22.117 1.392 7.418 2.784 15.159 2.476 21.496-.155 3.864-.929 6.498-2.165 8.188M64.59 31.578v-4.783l4.33-2.945c1.545-1.081 1.856-1.852 1.545-3.554-.771-3.553-5.72-9.903-11.906-9.903-9.122 0-13.143 7.89-13.143 18.402 0 12.227 4.792 28.144 4.947 38.506.156 8.35-2.782 13.146-8.04 17.01l-10.825 7.89-1.854-2.161c1.854-2.473 2.783-5.728 3.092-10.214.618-13.295-5.721-30.455-5.258-43.762.618-16.7 16.083-30.455 33.71-30.305 14.69 0 22.113 8.039 24.896 12.375L64.59 31.578zm-17.473 86.443c-2.01-4.485-7.423-8.039-13.763-9.12.62 0 1.238 0 1.857-.161 6.493 0 12.06 2.945 14.38 7.74l-2.474 1.541zm19.947-97.104v.15l-2.32 1.391c-.928-2.783-4.02-6.796-8.04-8.35.618-.149 1.238-.31 2.165-.31 4.176 0 7.886 4.945 8.35 7.12h-.155zm27.524 56.747V91.58c0 2.013.156 2.945 1.548 3.865l11.442 7.89 12.68-6.81 2.01 4.337-24.277 14.066-17.166-11.134c-1.545-1.08-2.472-2.621-2.472-5.094V55.858l-6.65 3.715v-4.324l32.318-18.874 20.72 22.887-30.153 18.402zm-2.165 40.357L76.806 107.66c-2.32-1.541-4.021-4.784-4.021-7.878V62.977l.619-.31 1.547-.932V98.7c0 4.324 2.164 6.648 4.02 7.878l15.463 10.213-2.01 1.23zm3.402-70.041l-1.237.77v22.577l13.917-8.66-12.68-14.687zm5.103 15.308l-2.783-3.405-.154-4.025 5.257 6.038M179.013 114.778c-1.546-4.336-6.031-8.822-14.07-9.12-7.578-.161-18.402 2.784-27.371 9.58l-1.701-2.162c6.495-7.12 21.649-18.55 37.575-18.712 8.35 0 14.226 2.783 18.402 7.268l6.958-3.864 2.01 4.014-21.803 12.996zM146.54 11.636c-1.238 3.553-1.083 6.958.463 9.741 1.393 2.473 3.867 4.175 6.805 4.945-9.125.783-13.144-6.486-7.268-14.686m127.88 8.35c-6.03 3.553-8.04 8.35-8.04 15.767v59.232c0 3.715.463 5.405 2.473 6.498l2.01 1.081 5.566-3.255 1.856 3.715-19.329 11.593-6.648-4.473c-2.938-2.013-4.175-4.486-4.175-9.282V47.98c0-9.903 3.092-15.16 7.421-18.402l2.476-1.864-18.247-10.66-8.196 4.944v77c0 6.499-.927 7.43-6.65 10.363 0 0-4.483 2.162-10.668 5.417h-1.238V29.416c0-4.175-.465-5.094-2.783-6.958l-6.495-5.256-7.886 4.486V65.91c0 7.74-1.236 13.307-7.422 17.171l-15.464 9.742-1.546-2.634c4.794-3.715 5.877-8.971 5.877-15.16V29.89c0-6.66-.93-9.282-7.888-8.052-2.629.472-6.647 1.093-9.122 1.392-10.206 1.391-14.535-5.865-7.577-14.998 0 0 1.7-2.31 6.031-7.877l3.4 2.31-2.473 3.554c-3.248 4.647-.619 7.12 4.64 5.269 2.472-.932 7.267-2.784 10.668-4.175 14.69-5.728 20.103 3.702 20.876 9.269l18.246-10.972 15.773 12.053 19.484-12.053 14.999 8.5c5.103 2.944 7.577 1.702 11.133-.15l2.939-1.553 2.32 3.864-6.341 3.716zM173.446 117.71c-1.237-4.014-4.947-7.418-11.442-8.35.928-.15 1.855-.15 2.782-.15 8.042.15 10.361 5.095 10.825 6.648l.155.46-2.32 1.392zm-2.783-31.697c.773-2.473 1.084-5.256 1.084-8.189V32.821c0-5.417-.311-6.026-2.166-7.729h.31c2.628-.472 4.02 0 4.02 4.635v45.154c0 5.256-.93 8.66-3.248 11.133m38.813 31.237s-.465.31-.774.46h-1.236V31.429c0-4.175-.31-4.175-2.784-6.026l-3.557-2.783 2.32-1.243c1.856 1.553 4.64 3.715 4.64 3.864 1.082 1.081 1.391 1.703 1.391 4.175V117.4v-.149zm40.822-87.673l-12.37-7.269 1.856-1.242 11.906 6.958c-.464.472-.927.932-1.392 1.553m3.093 88.133l-5.411-3.703c-3.558-2.485-5.413-6.647-5.413-11.295v-51.64c0-7.119 1.546-12.064 4.021-15.469-1.392 3.405-2.01 7.58-2.01 12.376l.154 52.882c0 5.716 1.7 9.43 5.722 12.214l4.947 3.405M314.93 114.928l-19.64-11.593c-2.32-1.392-3.246-2.784-3.246-6.499V55.858l-6.65 3.864v-4.473l32.32-18.874 19.947 11.903c2.164 1.243 2.937 2.945 2.937 5.107v41.91l5.413-2.783 1.391 3.405-32.472 19.01zm-5.567 3.093L291.58 107.66c-3.247-1.852-5.102-4.946-5.102-9.12V62.977l.619-.31 1.546-.77v34.94c0 4.646 1.391 7.268 4.947 9.43l17.783 10.673-2.009 1.081zm14.998-56.908c0-2.621-.463-3.864-2.938-5.255l-12.216-7.108-.927.31-.154 40.669c0 2.783.463 4.175 2.629 5.405l12.679 7.43.927-.161v-41.29zm-5.566 34.804l.156-31.71c0-3.243 0-3.553-3.094-5.256l-4.175-2.31v-2.324l7.269 4.324c1.391.783 2.009 1.391 2.009 3.255v35.25l-2.165-1.23zm90.305 18.7l-6.496-3.864c-3.091-1.852-4.483-4.486-4.483-9.12l-.154-42.06c0-2.634-.31-4.026-2.321-5.716l-7.42-5.877-6.342 3.703v51.341c0 4.337-1.081 5.567-4.793 7.107 0 0-2.474 1.094-10.205 4.486h-1.238V53.074l-4.793-5.405-6.65 4.014-2.63-3.094 19.486-11.904 9.742 10.512 18.4-10.512 11.908 8.971c2.164 1.541 2.937 3.094 2.937 6.648v44.383c0 3.703.465 5.256 2.63 6.486l2.008 1.243 5.722-3.243 1.547 3.553-16.855 9.89zm-47.009 2.783s-.463.162-.772.31h-1.238V56.169l-2.319-2.622 2.474-1.391 2.01 2.31V117.4h-.155zm41.443.31l-5.567-3.093c-3.248-1.851-5.568-5.716-5.568-11.282V62.667c0-3.716.31-3.865-2.164-5.728l-4.484-3.393 2.318-1.242a568.994 568.994 0 0 1 5.413 4.336c.928.77 1.082.61 1.082 3.082v41.91c0 5.878 2.166 9.742 6.34 12.215l4.639 2.783M459.658 114.928l-18.555-11.593c-2.166-1.392-3.093-2.784-3.093-6.188V57.87l-6.34 3.405V57.1l37.42-21.645V32.97c0-5.716-3.247-11.282-8.195-14.065l-4.64-2.635-7.112 3.865-4.33-2 21.803-12.687 6.96 4.336c7.113 4.324 11.442 10.512 11.442 20.105v65.556l5.566-2.933 1.392 3.554-32.318 18.862zm-5.567 3.093l-17.318-10.971c-2.63-1.702-4.33-4.026-4.33-9.282v-32.94l.929-.46 1.236-.62v33.25c0 4.485.773 6.796 4.793 9.27l16.7 10.523-2.01 1.23zm9.433-83.349c0-6.026-2.938-9.741-8.195-12.674l-1.084-.62 1.856-1.243s1.392.782 2.938 1.702c4.02 2.323 6.65 6.809 6.65 11.133v.472l-2.165 1.23zm5.567 8.35l-1.084-.609-13.762 8.35V90.19c0 2.783.774 3.864 2.94 5.256l10.979 7.12.927-.162v-59.38zm-5.567 52.423V49.21l2.165-1.392v49.018l-2.165-1.391zm58.606-17.781V91.58c0 2.013.154 2.784 1.7 3.865l11.443 7.89 12.68-6.81 1.855 4.337-24.277 14.066-17.165-11.134c-1.546-1.08-2.472-2.621-2.472-5.094V55.858l-6.65 3.715v-4.324l32.318-18.874 20.876 22.887-30.308 18.402zm-2.166 40.357l-15.462-10.2c-2.63-1.703-4.175-4.486-4.175-8.512V62.977l.618-.31 1.546-.932V98.7c0 4.324 2.165 6.648 4.02 7.878l15.619 10.213-2.166 1.23zm3.556-70.041l-1.39.77v22.577l13.916-8.66L523.52 47.98zm4.948 15.308l-2.782-3.405-.155-4.025 5.258 6.038"/></svg>