<svg xmlns="http://www.w3.org/2000/svg" width="279.256" height="55.981" viewBox="-0.294 -0.317 279.25647 55.980793"><path d="M90.666 5.945c-2.934-1.276-6.075-2.107-8.87-2.107-4.086 0-6.126.897-6.126 2.514 0 4.627 18.223.91 18.223 10.785 0 4.088-3.743 7.243-11.243 7.243-4.449 0-7.926-.942-11.918-3.155l1.647-3.684c3.5 1.993 6.768 2.878 10.297 2.878 4.447 0 6.832-1.315 6.832-3.282 0-5.062-18.23-1.284-18.23-10.536 0-3.991 3.714-6.736 10.43-6.736 4.018 0 7.397.904 10.628 2.561l-1.67 3.52M110.981 24.503c-7.278 0-13.314-4.97-13.314-12.396 0-7.34 6.036-12.406 13.314-12.406 7.321 0 13.26 5.065 13.26 12.406 0 7.427-5.939 12.396-13.26 12.396m0-20.801c-5.3 0-8.922 3.679-8.922 8.405 0 4.836 3.464 8.434 8.922 8.434 5.425 0 8.872-3.631 8.872-8.434 0-4.726-3.447-8.405-8.872-8.405M141.633 24.475c-7.65 0-13.411-4.963-13.411-12.398 0-7.309 5.85-12.376 13.41-12.376 4.509 0 7.74 1.313 10.635 3.5l-2.254 3.435c-2.108-1.658-4.745-2.869-8.257-2.869-5.581 0-9.05 3.614-9.05 8.308 0 4.835 3.501 8.344 9.106 8.344 3.504 0 6.284-1.16 8.378-2.82l2.264 3.44c-2.903 2.188-6.313 3.436-10.821 3.436M157.072.42h4.248v23.427h-4.248zM167.589 23.847V.42h20.81v3.874h-16.568v5.692h12.877v3.865h-12.877v6.123h17.299v3.873h-21.541M204.943 4.269v19.578h-4.23l.001-19.578h-9.319V.419h22.859v3.85h-9.311M217.662 23.847V.42h20.81v3.874h-16.568v5.692h12.887v3.865h-12.887v6.123h17.298v3.873h-21.54M83.8 51.572c2.323 0 4.72-.535 6.523-1.414v-6.81h4.119v9.095c-2.9 1.998-6.886 3.217-10.823 3.217-7.64 0-13.401-4.961-13.401-12.4 0-7.31 5.849-12.365 13.4-12.365 4.424 0 7.743 1.28 10.643 3.466L92.009 37.8c-2.114-1.657-4.763-2.788-8.273-2.788-5.575-.119-9.04 3.57-9.04 8.249 0 4.848 3.505 8.312 9.104 8.312M100.023 55.032v-23.42h20.814v3.869h-16.585v5.69h12.894v3.868h-12.894v6.124h17.312v3.869h-21.54M129.875 55.032h-4.146v-23.42h4.325l14.902 17.651.102-.031c-.25-4.438-.283-8.03-.283-11.504v-6.116h4.142v23.42h-4.29l-14.848-17.647-.068.035c.164 3.468.164 9.525.164 11.496v6.116M154.883 55.032v-23.42h20.807v3.869h-16.578v5.69h12.89v3.868h-12.89v6.124h17.318v3.869h-21.547M191.97 46.416h-6.828v8.616h-4.239v-23.42h14.686c4.873 0 7.895 3.065 7.895 7.467 0 4.18-2.968 6.677-6.554 7.21l6.8 8.743h-5.307l-6.454-8.616m3.168-3.903c2.649 0 4.147-1.406 4.147-3.432 0-2.222-1.315-3.598-3.695-3.598h-10.447v7.032h9.995zM212.414 49.346l-2.62 5.686h-4.585l11.133-23.42h4.452l11.147 23.42h-4.568l-2.63-5.686h-12.33m1.766-3.803h8.802l-4.387-9.491-4.415 9.49zM235.058 55.032v-23.42h4.233v19.551h15.258v3.869h-19.49M257.412 55.032v-23.42h20.824v3.869h-16.584v5.69h12.891v3.868h-12.89v6.124h17.31v3.869h-21.55"/><path d="M-.294-.317h54.612v28.55H-.294z" fill="#ed1a3a" fill-rule="evenodd"/><path d="M-.294 27.674h54.612v27.99H-.294z" fill-rule="evenodd"/><path d="M9.248 27.672h35.53" fill="none" stroke="#fff" stroke-width="1.725" stroke-miterlimit="10"/></svg>