<svg xmlns="http://www.w3.org/2000/svg" xmlns:xlink="http://www.w3.org/1999/xlink" width="315" height="299.999"><defs><linearGradient id="q"><stop offset="0" stop-color="#33bdf2" stop-opacity=".698"/><stop offset="1" stop-color="#1dacd8"/></linearGradient><linearGradient id="p"><stop offset="0" stop-color="#05a1e6" stop-opacity=".247"/><stop offset="1" stop-color="#05a1e6"/></linearGradient><radialGradient cx="0" cy="0" r="1" fx="0" fy="0" id="a" gradientUnits="userSpaceOnUse" gradientTransform="matrix(-368.83783 3054.2361 3027.4705 178.24222 -35.956 775.328)" spreadMethod="pad"><stop offset="0" stop-color="#fff"/><stop offset=".907" stop-color="#9ca6b0"/><stop offset=".907" stop-color="#9ca6b0"/><stop offset="1" stop-color="#c2c6cc"/></radialGradient><linearGradient x2="1" id="b" gradientUnits="userSpaceOnUse" gradientTransform="matrix(0 -29.6613 -29.6613 0 2008.51 86.026)"><stop offset="0" stop-color="#0994dc"/><stop offset=".35" stop-color="#66cef5"/><stop offset=".35" stop-color="#66cef5"/><stop offset=".846" stop-color="#127bca"/><stop offset=".846" stop-color="#127bca"/><stop offset="1" stop-color="#127bca"/></linearGradient><linearGradient x2="1" id="c" gradientUnits="userSpaceOnUse" gradientTransform="matrix(0 -30.41722 -30.41722 0 2009.642 86.777)"><stop offset="0" stop-color="#0e76bc"/><stop offset=".36" stop-color="#36aee8"/><stop offset=".36" stop-color="#36aee8"/><stop offset=".846" stop-color="#00adef"/><stop offset=".846" stop-color="#00adef"/><stop offset="1" stop-color="#00adef"/></linearGradient><linearGradient x2="1" id="r" gradientUnits="userSpaceOnUse" gradientTransform="matrix(0 24.20256 24.20256 0 2015.755 62.94)"><stop offset="0" stop-color="#1c63b7"/><stop offset=".5" stop-color="#33bdf2"/><stop offset="1" stop-color="#33bdf2" stop-opacity=".42"/></linearGradient><linearGradient x2="1" id="d" gradientUnits="userSpaceOnUse" gradientTransform="matrix(0 -31.58095 -31.58095 0 2014.164 89.86)"><stop offset="0" stop-color="#166ab8"/><stop offset=".4" stop-color="#36aee8"/><stop offset=".4" stop-color="#36aee8"/><stop offset=".846" stop-color="#0798dd"/><stop offset=".846" stop-color="#0798dd"/><stop offset="1" stop-color="#0798dd"/></linearGradient><linearGradient x2="1" id="e" gradientUnits="userSpaceOnUse" gradientTransform="matrix(0 -33.58215 -33.58215 0 2011.675 89.693)"><stop offset="0" stop-color="#124379"/><stop offset=".39" stop-color="#1487cb"/><stop offset=".39" stop-color="#1487cb"/><stop offset=".78" stop-color="#165197"/><stop offset=".78" stop-color="#165197"/><stop offset="1" stop-color="#165197"/></linearGradient><linearGradient x2="1" id="o" gradientUnits="userSpaceOnUse" gradientTransform="matrix(0 23.57664 23.57664 0 2033.846 63.547)"><stop offset="0" stop-color="#136ab4"/><stop offset=".6" stop-color="#59caf5" stop-opacity=".549"/><stop offset="1" stop-color="#59caf5" stop-opacity=".235"/></linearGradient><linearGradient x2="1" id="f" gradientUnits="userSpaceOnUse" gradientTransform="matrix(0 24.14058 24.14058 0 1991.092 62.953)"><stop offset="0" stop-color="#318ed5"/><stop offset="1" stop-color="#38a7e4"/></linearGradient><linearGradient x2="1" id="n" gradientUnits="userSpaceOnUse" gradientTransform="matrix(0 23.46596 23.46596 0 1992.611 62.868)"><stop offset="0" stop-color="#05a1e6"/><stop offset="1" stop-color="#05a1e6" stop-opacity=".549"/></linearGradient><linearGradient x2="1" id="g" gradientUnits="userSpaceOnUse" gradientTransform="matrix(0 19.8291 19.8291 0 1993.873 61.67)"><stop offset="0" stop-color="#1959a6"/><stop offset=".5" stop-color="#05a1e6"/><stop offset=".5" stop-color="#05a1e6"/><stop offset=".918" stop-color="#7ec5ea"/><stop offset="1" stop-color="#7ec5ea"/></linearGradient><linearGradient x2="1" id="h" gradientUnits="userSpaceOnUse" gradientTransform="scale(-21.83203 21.83203) rotate(80 -47.4 -53)"><stop offset="0" stop-color="#165096"/><stop offset="1" stop-color="#0d82ca"/></linearGradient><linearGradient x2="1" id="i" gradientUnits="userSpaceOnUse" gradientTransform="matrix(0 11.23593 11.23593 0 2029.809 75.097)"><stop offset="0" stop-color="#05a1e6"/><stop offset=".874" stop-color="#0495d6"/><stop offset="1" stop-color="#0495d6"/></linearGradient><linearGradient x2="1" id="m" gradientUnits="userSpaceOnUse" gradientTransform="scale(-26.30915 26.30915) rotate(-80 -36.698 47.753)"><stop offset="0" stop-color="#38a7e4" stop-opacity=".329"/><stop offset=".962" stop-color="#0e88d3"/><stop offset=".962" stop-color="#0e88d3"/><stop offset="1" stop-color="#0e88d3"/></linearGradient><linearGradient x2="1" id="j" gradientUnits="userSpaceOnUse" gradientTransform="matrix(0 -24.51245 -24.51245 0 2031 86.462)"><stop offset="0" stop-color="#168cd4"/><stop offset=".5" stop-color="#1c87cc"/><stop offset="1" stop-color="#154b8d"/></linearGradient><linearGradient x2="1" id="l" gradientUnits="userSpaceOnUse" gradientTransform="scale(6.1127 -6.1127) rotate(22.527 199.29 814.197)"><stop offset="0" stop-color="#97d6ee"/><stop offset=".703" stop-color="#55c1ea"/><stop offset="1" stop-color="#55c1ea"/></linearGradient><linearGradient x2="1" id="k" gradientUnits="userSpaceOnUse" gradientTransform="matrix(4.45943 2.0216 2.0216 -4.45943 2002.999 84.154)"><stop offset="0" stop-color="#7accec"/><stop offset="1" stop-color="#3fb7ed"/></linearGradient><linearGradient x2="1" id="s" gradientUnits="userSpaceOnUse" gradientTransform="matrix(0 -23.97563 -23.97563 0 2027.682 85.106)"><stop offset="0" stop-color="#1da7e7"/><stop offset="1" stop-color="#37abe7" stop-opacity="0"/></linearGradient><linearGradient x2="1" id="t" xlink:href="#b" gradientUnits="userSpaceOnUse" gradientTransform="rotate(90 -380.67 1455.666) scale(149.73457)"/><linearGradient x2="1" id="u" xlink:href="#c" gradientUnits="userSpaceOnUse" gradientTransform="rotate(90 -375.92 1456.624) scale(153.55057)"/><linearGradient x2="1" id="w" xlink:href="#d" gradientUnits="userSpaceOnUse" gradientTransform="rotate(90 -356.726 1460.26) scale(159.42523)"/><linearGradient x2="1" id="x" xlink:href="#e" gradientUnits="userSpaceOnUse" gradientTransform="rotate(90 -363.428 1454.396) scale(169.52761)"/><linearGradient x2="1" id="B" xlink:href="#f" gradientUnits="userSpaceOnUse" gradientTransform="rotate(-90 1469.938 482.875) scale(121.86516)"/><linearGradient x2="1" id="D" xlink:href="#g" gradientUnits="userSpaceOnUse" gradientTransform="rotate(-90 1480.194 479.092) scale(100.1002)"/><linearGradient x2="1" id="E" xlink:href="#h" gradientUnits="userSpaceOnUse" gradientTransform="scale(-110.21127) rotate(80 6 -14.293)"/><linearGradient x2="1" id="F" xlink:href="#i" gradientUnits="userSpaceOnUse" gradientTransform="rotate(-90 1537.01 354.5) scale(56.72062)"/><linearGradient x2="1" id="H" xlink:href="#j" gradientUnits="userSpaceOnUse" gradientTransform="rotate(90 -322.806 1511.33) scale(123.74243)"/><linearGradient x2="1" id="J" xlink:href="#k" gradientUnits="userSpaceOnUse" gradientTransform="matrix(4.45943 2.0216 2.0216 -4.45943 2002.999 84.154)"/><linearGradient x2="1" id="I" xlink:href="#l" gradientUnits="userSpaceOnUse" gradientTransform="scale(6.1127 -6.1127) rotate(22.527 199.29 814.197)"/><linearGradient x2="1" id="C" xlink:href="#n" gradientUnits="userSpaceOnUse" gradientTransform="rotate(-90 1473.987 479.255) scale(118.45958)"/><linearGradient x1="937.661" y1="2075.999" x2="959.674" y2="2075.999" id="A" xlink:href="#p" gradientUnits="userSpaceOnUse" gradientTransform="matrix(4.03852 0 0 4.03852 -2848.934 -6485.653)"/><linearGradient x1="958.722" y1="2068.957" x2="964.657" y2="2068.957" id="y" xlink:href="#q" gradientUnits="userSpaceOnUse" gradientTransform="matrix(4.03852 0 0 4.03852 -2848.934 -6485.653)"/><linearGradient x2="1" id="v" xlink:href="#r" gradientUnits="userSpaceOnUse" gradientTransform="rotate(-90 1532.221 420.656) scale(122.17805)"/><linearGradient x2="1" id="K" xlink:href="#s" gradientUnits="userSpaceOnUse" gradientTransform="rotate(90 -334.603 1506.376) scale(121.03249)"/><linearGradient x2="1" id="G" xlink:href="#m" gradientUnits="userSpaceOnUse" gradientTransform="scale(-132.81243) rotate(-80 -12.76 -1.463)"/><linearGradient x2="1" id="z" xlink:href="#o" gradientUnits="userSpaceOnUse" gradientTransform="rotate(-90 1576.353 373.463) scale(119.01834)"/></defs><path d="M260.89 113.2h-2.796v8.693h-1.14V113.2h-2.807v-1.035h6.744v1.035zM272.342 121.891h-1.135v-6.532c0-.515.04-1.146.093-1.888-.117.444-.214.752-.303.949l-3.312 7.471h-.555l-3.322-7.415c-.097-.206-.193-.54-.298-1.005h-.04c.04.392.053 1.025.053 1.903v6.517h-1.09v-9.727h1.503l2.984 6.79c.226.51.367.903.44 1.165h.043c.198-.535.36-.934.47-1.196l3.044-6.76h1.433v9.728zM263.488 158.007c0-.53-.145-.909-.444-1.157-.33-.266-.904-.408-1.7-.408h-1.147v3.15h1.383c1.278 0 1.908-.53 1.908-1.585m1.787 6.568H263.7l-1.004-2.217c-.51-1.11-1.055-1.666-1.65-1.666h-.849v3.883H258.9v-9.239h2.6c1.157 0 2.025.25 2.62.773.505.449.758 1.025.758 1.741 0 .637-.206 1.172-.621 1.615-.404.45-.985.753-1.727.91v.04c.515.12 1.03.686 1.53 1.706l1.216 2.459zm2.878-4.529c0-1.817-.62-3.352-1.858-4.569-1.242-1.216-2.756-1.827-4.543-1.827-1.843 0-3.377.611-4.594 1.838-1.217 1.232-1.822 2.756-1.822 4.558 0 1.843.63 3.382 1.883 4.61 1.237 1.226 2.751 1.832 4.533 1.832 1.772 0 3.286-.611 4.533-1.853 1.247-1.222 1.868-2.756 1.868-4.589m.873-.04c0 2.04-.701 3.751-2.11 5.13-1.408 1.388-3.135 2.079-5.2 2.079-2.08 0-3.806-.681-5.179-2.02-1.373-1.357-2.054-3.063-2.054-5.133 0-2.025.696-3.726 2.09-5.124 1.393-1.393 3.13-2.09 5.204-2.09 2.034 0 3.74.667 5.124 1.994 1.418 1.363 2.125 3.08 2.125 5.164M71.58 185.767h-4.477v-25.625c0-2.024.133-4.487.371-7.395h-.1c-.42 1.701-.804 2.933-1.142 3.695l-13.014 29.325h-2.18l-13.04-29.113c-.368-.813-.752-2.12-1.14-3.907h-.098c.138 1.53.214 4.008.214 7.446v25.574h-4.316v-38.159h5.906l11.707 26.609c.883 2.004 1.454 3.528 1.731 4.568h.186c.762-2.085 1.368-3.65 1.828-4.68l11.958-26.497h5.604v38.159zM85.354 185.765h-4.351v-27.25h4.35v27.25zm.752-37.018c0 .803-.283 1.474-.843 2.025-.55.55-1.232.828-2.03.828a2.813 2.813 0 0 1-2.008-.798c-.556-.535-.829-1.217-.829-2.055 0-.787.275-1.458.829-2.004.555-.545 1.231-.807 2.008-.807.798 0 1.48.262 2.03.807.56.546.843 1.217.843 2.004M112.547 184.505c-2.09 1.282-4.583 1.918-7.466 1.918-3.907 0-7.052-1.297-9.455-3.887-2.332-2.514-3.508-5.76-3.508-9.738 0-4.463 1.277-8.077 3.851-10.823 2.56-2.751 6.003-4.125 10.334-4.125 2.367 0 4.467.465 6.305 1.384v4.478c-2.034-1.43-4.185-2.136-6.492-2.136-2.776 0-5.033.97-6.785 2.903-1.822 1.979-2.746 4.624-2.746 7.925 0 3.17.843 5.68 2.52 7.532 1.68 1.843 3.917 2.767 6.738 2.767 2.383 0 4.614-.783 6.704-2.343v4.145zM133.361 162.937c-.767-.59-1.873-.879-3.332-.879-1.771 0-3.26.793-4.467 2.393-1.368 1.787-2.05 4.26-2.05 7.42v13.893h-4.361v-27.25h4.361v5.62h.105c.642-1.99 1.631-3.52 2.954-4.605 1.236-.99 2.635-1.49 4.174-1.49 1.161 0 2.025.126 2.615.372v4.524zM157.67 172.19c0-3.488-.787-6.153-2.362-7.98-1.53-1.758-3.665-2.636-6.416-2.636-2.711 0-4.887.888-6.513 2.665-1.721 1.898-2.58 4.579-2.58 8.057 0 3.261.819 5.82 2.47 7.648 1.64 1.837 3.851 2.756 6.623 2.756 2.867 0 5.063-.933 6.567-2.791 1.474-1.818 2.211-4.387 2.211-7.719m4.473-.153c0 4.341-1.227 7.83-3.67 10.444-2.453 2.625-5.755 3.938-9.904 3.938-4.09 0-7.346-1.313-9.733-3.938-2.338-2.529-3.514-5.87-3.514-10.025 0-4.74 1.328-8.396 3.993-10.99 2.464-2.408 5.76-3.62 9.89-3.62 4.063 0 7.239 1.267 9.525 3.776 2.267 2.524 3.413 5.998 3.413 10.415M183.773 178.475c0 2.231-.832 4.08-2.503 5.553-1.823 1.595-4.326 2.393-7.476 2.393-2.58 0-4.842-.54-6.76-1.64v-4.69c2.135 1.736 4.493 2.61 7.083 2.61 3.453 0 5.184-1.272 5.184-3.807 0-1.065-.38-1.948-1.146-2.63-.767-.697-2.257-1.53-4.473-2.504-2.281-1-3.907-2.024-4.866-3.09-1.15-1.261-1.732-2.902-1.732-4.921 0-2.262.904-4.145 2.691-5.644 1.792-1.504 4.094-2.257 6.921-2.257 2.166 0 4.104.424 5.826 1.278v4.392c-1.798-1.298-3.852-1.944-6.184-1.944-1.444 0-2.605.36-3.468 1.06-.874.717-1.313 1.63-1.313 2.746 0 1.207.367 2.146 1.096 2.817.646.621 2.019 1.378 4.089 2.262 2.327.974 4.008 1.984 5.032 3.018 1.328 1.308 2 2.974 2 4.998M210.43 172.19c0-3.488-.788-6.153-2.368-7.98-1.525-1.758-3.665-2.636-6.411-2.636-2.711 0-4.887.888-6.522 2.665-1.717 1.898-2.57 4.579-2.57 8.057 0 3.261.818 5.82 2.453 7.648 1.661 1.837 3.872 2.756 6.639 2.756 2.872 0 5.063-.933 6.567-2.791 1.474-1.818 2.211-4.387 2.211-7.719m4.483-.153c0 4.341-1.237 7.83-3.685 10.444-2.443 2.625-5.745 3.938-9.894 3.938-4.094 0-7.35-1.313-9.738-3.938-2.338-2.529-3.514-5.87-3.514-10.025 0-4.74 1.338-8.396 3.988-10.99 2.464-2.408 5.765-3.62 9.9-3.62 4.064 0 7.234 1.267 9.516 3.776 2.271 2.524 3.427 5.998 3.427 10.415M234.132 149.256c-.858-.474-1.812-.716-2.898-.716-3.054 0-4.569 1.923-4.569 5.775v4.2h6.386v3.695h-6.386v23.555H222.3V162.21h-4.634v-3.695h4.634v-4.417c0-3 .919-5.352 2.787-7.048 1.6-1.474 3.558-2.206 5.886-2.206 1.348 0 2.398.162 3.16.475v3.937zM251.347 185.49c-1.03.592-2.403.885-4.1.885-4.755 0-7.132-2.681-7.132-8.042v-16.119h-4.675v-3.7h4.675v-6.649c1.393-.439 2.842-.918 4.372-1.413v8.062h6.86v3.7h-6.86v15.377c0 1.827.298 3.134.923 3.892.631.782 1.661 1.166 3.115 1.166 1.085 0 2.024-.29 2.822-.878v3.72zM15.558 292.118c0 2.135-.762 3.983-2.302 5.543C11.722 299.216 9.86 300 7.673 300c-2.135 0-3.953-.783-5.442-2.338C.741 296.101 0 294.253 0 292.118c0-2.195.742-4.048 2.231-5.583 1.49-1.54 3.307-2.302 5.442-2.302 2.186 0 4.049.773 5.583 2.332 1.54 1.56 2.302 3.413 2.302 5.553M113.218 298.394H98.993l-51.638-79.746a36.594 36.594 0 0 1-3.13-6.28h-.424c.367 2.136.556 6.72.556 13.741v72.285H32.63v-100.05h15.22l50.093 78.49c1.994 3.114 3.356 5.345 4.048 6.688h.279c-.465-2.878-.707-7.784-.707-14.71v-70.467h11.656v100.049zM188.398 298.394h-53.026v-100.05h50.724v10.602h-39.007v33.282h36.145v10.606h-36.145v34.954h41.309v10.606zM268.828 208.947h-28.82v89.448h-11.721v-89.448H199.41v-10.606h69.417v10.606z"/><path d="M1046.848 1860.019c11.313 34.595 15.6 96.308 48.68 96.308 2.519 0 5.063-.246 7.617-.732-30.071-7.011-33.635-68.054-51.985-99.665a152.247 152.247 0 0 0-4.312 4.089" fill="url(#t)" transform="translate(-937.607 -1834.482)"/><path d="M1051.16 1855.93c18.35 31.611 21.913 92.653 51.985 99.665 2.363-.434 4.73-1.09 7.103-1.918-26.992-13.226-34.454-72.502-55.292-101.039-1.262 1.05-2.53 2.151-3.797 3.291" fill="url(#u)" transform="translate(-937.607 -1834.482)"/><path d="M139.992 2.648c-2.514 0-5.064.246-7.623.732-6.694 1.262-13.493 4.144-20.349 8.506 1.873 1.847 3.655 3.962 5.33 6.27 6.972-5.786 13.898-10.061 20.8-12.63 2.589-.96 5.169-1.682 7.758-2.156a23.902 23.902 0 0 0-5.916-.722" fill="#14559a"/><path d="M1131.319 1941.485a121.197 121.197 0 0 0 8.3-7.274c-11.496-34.433-15.61-97.03-48.922-97.03a39.43 39.43 0 0 0-7.184.666c30.344 7.547 34.231 73.567 47.806 103.638" fill="url(#v)" transform="translate(-937.607 -1834.482)"/><path d="M145.907 3.367a23.925 23.925 0 0 0-5.916-.721l13.1.048c-2.383 0-4.786.222-7.184.671" fill="#3092c4"/><path d="M193.13 114.318c-1.302-1.241-2.539-2.604-3.756-4.058-5.603 3.968-11.186 6.976-16.734 8.935a25.776 25.776 0 0 0 6.24 2.125 26.44 26.44 0 0 0 5.315.525c6.225 0 11.146-.737 15.336-2.746-2.307-1.247-4.422-2.862-6.4-4.78" fill="#1969bc"/><path d="M1075.754 1840.013c27.18 14.215 29.542 78.59 51.229 104.729a92.066 92.066 0 0 0 4.33-3.257c-13.574-30.071-17.456-96.096-47.795-103.638a46.98 46.98 0 0 0-7.764 2.166" fill="url(#w)" transform="translate(-937.607 -1834.482)"/><path d="M1054.956 1852.638c20.838 28.537 28.3 87.813 55.292 101.039 5.548-1.959 11.131-4.967 16.735-8.935-21.687-26.14-24.05-90.514-51.229-104.73-6.9 2.565-13.827 6.84-20.798 12.626" fill="url(#x)" transform="translate(-937.607 -1834.482)"/><path d="M1033.516 1859.186c-3.267 7.385-6.603 17.093-10.637 29.764 8.022-11.303 16.018-21.041 23.969-28.931-1.096-3.367-2.272-6.472-3.539-9.239a119.441 119.441 0 0 0-9.793 8.406" fill="url(#y)" transform="translate(-937.607 -1834.482)"/><path d="M108.598 14.169c-.959.686-1.923 1.388-2.892 2.13 1.267 2.767 2.438 5.871 3.534 9.238a167.726 167.726 0 0 1 4.31-4.089c-1.54-2.645-3.175-5.088-4.952-7.28" fill="#2b74b1"/><path d="M112.02 11.886a94.107 94.107 0 0 0-3.422 2.282c1.776 2.19 3.412 4.634 4.957 7.284a115.563 115.563 0 0 1 3.796-3.296c-1.676-2.307-3.458-4.423-5.33-6.27" fill="#125a9e"/><path d="M1235.013 1834.495c-15.372 59.28-47.478 106.895-74.395 118.9h-.05c-.49.221-.975.423-1.454.62-.066.04-.126.045-.177.069-.142.057-.273.1-.414.157-.066.04-.126.053-.187.077-.227.081-.45.15-.671.239-.096.04-.187.065-.278.097-.101.04-.217.077-.333.109-.101.04-.207.069-.323.113-.096.04-.197.057-.288.097-.197.057-.378.105-.575.173-.081 0-.157.044-.243.065-.12.04-.257.07-.389.105-.09.04-.166.053-.262.073-.137.04-.288.077-.424.11l-.515.113a10.96 10.96 0 0 0 3.852.676c25.523 0 51.258-45.741 93.84-121.806h-16.72z" fill="url(#z)" transform="translate(-937.607 -1834.482)"/><path d="M1017.336 1839.535c.016 0 .036-.04.046-.04.02 0 .051 0 .061-.04h.032c.142-.047.273-.104.414-.157.036 0 .055 0 .081-.04.036 0 .071-.04.107-.045.151-.048.302-.105.444-.158h.024c.338-.1.651-.226.98-.343.045 0 .09-.04.145-.04.137-.044.278-.093.42-.125.065-.04.13-.04.191-.06.146-.045.288-.094.424-.126.061 0 .116-.04.162-.044.47-.13.934-.25 1.403-.364.066 0 .121-.04.192-.044.136-.04.263-.06.409-.08.06-.04.131-.04.202-.062.136-.04.267-.044.414-.077h.096c.282-.057.57-.105.853-.157h.172c.136-.04.257-.044.393-.07.075 0 .152-.04.222-.04.126 0 .253-.04.379-.056.066 0 .131 0 .207-.04.298-.04.606-.056.919-.081a28.356 28.356 0 0 0-2.716-.141c-28.744 0-68.347 53.333-86.187 122.402h3.438c5.71-10.182 10.838-19.814 15.528-28.855 12.494-48.922 37.942-82.285 60.547-91.124" fill="url(#A)" transform="translate(-937.607 -1834.482)"/><path d="M95.909 24.704a119.39 119.39 0 0 1 9.793-8.405c-.741-1.626-1.509-3.13-2.332-4.508-2.63 3.19-5.033 7.4-7.461 12.913" fill="#0d82ca"/><path d="M98.27 5.458c1.878 1.575 3.559 3.74 5.099 6.335.485-.595.974-1.146 1.484-1.66-2.135-1.994-4.442-3.63-6.946-4.862.1.056.202.101.307.146 0 0 .04.04.057.04" fill="#0d82ca"/><path d="M956.79 1930.657c26.21-50.506 38.628-82.471 60.547-91.124-22.6 8.845-48.053 42.208-60.548 91.124" fill="url(#B)" transform="translate(-937.607 -1834.482)"/><path d="M104.851 10.131c-.51.52-.994 1.066-1.484 1.661.823 1.378 1.59 2.878 2.338 4.508.969-.742 1.933-1.444 2.892-2.13a39.355 39.355 0 0 0-3.746-4.039" fill="#127bca"/><path d="M968.688 1959.286c-.162.04-.323.04-.475.057h-.09c-.137 0-.278.04-.404.04h-.066c-.328.04-.651.04-.964.065h-.101c26.528-.743 38.653-14.025 44.67-33.288 4.574-14.604 8.33-26.907 11.622-37.23-11.111 15.639-22.273 34.282-33.495 55.166-5.412 10.066-13.64 14.27-20.697 15.17" fill="url(#C)" transform="translate(-937.607 -1834.482)"/><path d="M968.688 1959.275c7.057-.899 15.286-5.099 20.697-15.17 11.222-20.879 22.389-39.526 33.49-55.166 4.038-12.676 7.37-22.378 10.641-29.763-22.126 21.06-44.338 56.08-64.828 100.09" fill="url(#D)" transform="translate(-937.607 -1834.482)"/><path d="M19.181 96.177c-4.69 9.041-9.818 18.673-15.528 28.855h10c1.323-10.112 3.201-19.754 5.528-28.85" fill="#05a1e6"/><path d="M1025.808 1837.353c-.081 0-.142.04-.212.04-.121.04-.248.04-.374.053-.075 0-.146 0-.222.04-.136.04-.262.044-.394.069-.06 0-.12 0-.171.04-.288.048-.57.1-.854.15h-.096c-.146.04-.277.06-.413.08-.071.04-.142.04-.208.056-.136.04-.272.057-.403.081-.071.04-.126.04-.192.044-.47.113-.934.234-1.404.364-.05 0-.1.04-.161.048-.142.04-.278.08-.424.125-.061.04-.132.04-.192.056-.141.04-.283.08-.42.125-.054 0-.1.04-.15.04-.324.121-.642.242-.975.343-.141.044-.293.101-.444.154-.061.04-.116.049-.187.077-.141.044-.282.1-.414.153-.05.04-.1.044-.136.065-21.919 8.653-34.337 40.618-60.547 91.124a243.352 243.352 0 0 0-5.528 28.85h1.403c3.953 0 5.069-.04 9.617-.04H966.714c.313-.04.636-.04.964-.065h.061c.136 0 .273-.04.404-.04h.096c.146 0 .313-.04.474-.057 20.49-44.01 42.702-79.028 64.828-100.09 2.434-5.512 4.831-9.722 7.457-12.907-1.535-2.595-3.216-4.766-5.094-6.341 0 0-.051 0-.055-.04-.106-.044-.207-.097-.313-.15-.106-.056-.197-.1-.308-.157a3.342 3.342 0 0 1-.303-.145c-.13-.04-.237-.097-.353-.15-.096-.04-.182-.08-.278-.12a11.814 11.814 0 0 1-.58-.243c-.086-.04-.167-.061-.248-.093a8.245 8.245 0 0 1-.434-.174c-.071-.04-.152-.048-.232-.077-.207-.069-.41-.141-.601-.206h-.05c-.232-.077-.46-.133-.697-.198-.055-.04-.1-.04-.156-.048-.207-.057-.389-.113-.586-.165-.05 0-.096-.04-.136-.04a20.73 20.73 0 0 0-1.459-.32c-.05 0-.1-.04-.151-.04a8.619 8.619 0 0 0-.631-.1c-.051-.04-.081-.04-.126-.04-.252-.04-.5-.07-.747-.097h-.131c-.202-.04-.389-.044-.576-.065-.318.04-.62.057-.919.085" fill="url(#E)" transform="translate(-937.607 -1834.482)"/><path d="M1174.97 1867.313c-5.043 16.154-9.127 29.481-12.68 40.446 13.836-19.042 27.466-42.995 40.445-70.638-15.14 4.754-23.216 15.639-27.765 30.192" fill="url(#F)" transform="translate(-937.607 -1834.482)"/><path d="M1162.728 1952.385c-.706.359-1.413.701-2.11 1.01 26.917-12.005 59.023-59.62 74.395-118.9h-3.115c-35.317 63.087-46.675 105.32-69.17 117.89" fill="url(#G)" transform="translate(-937.607 -1834.482)"/><path d="M207.545 112.602c5.856-7.148 10.626-19.298 17.139-39.325-7.512 10.319-15.074 19.189-22.641 26.422 0 .04 0 .04-.04.065 1.65 4.948 3.463 9.314 5.528 12.838" fill="#079ae1"/><path d="M207.545 112.602c-1.994 2.434-4.104 4.286-6.451 5.66-.515.298-1.035.58-1.565.838a22.682 22.682 0 0 0 8.213 2.59c.444.043.883.084 1.343.116h.08c.207 0 .425 0 .647.04h2.189c.081 0 .166 0 .247-.04.157 0 .323 0 .484-.04h.239c.166 0 .347-.04.525-.057h.04c.053 0 .11-.04.162-.04.185-.04.38-.057.56-.085h.166c.206-.04.419-.065.63-.105H215.157a22.39 22.39 0 0 0 1.256-.266c-3.473-1.273-6.38-4.271-8.884-8.542" fill="#1969bc"/><path d="M157.921 121.846c2.52 0 5.064-.246 7.618-.737 2.363-.429 4.73-1.085 7.103-1.913a25.823 25.823 0 0 0 6.234 2.125 26.49 26.49 0 0 0 5.321.525h-26.276z" fill="#1e5cb3"/><path d="M184.197 121.846c6.22 0 11.147-.737 15.332-2.746a22.688 22.688 0 0 0 8.213 2.59c.444.044.884.085 1.343.117h.08c.207 0 .425 0 .647.04h.754-26.386z" fill="#1e5cb3"/><path d="M210.582 121.846h1.439c.085 0 .166 0 .247-.04.157 0 .323 0 .49-.04h.238c.166 0 .348-.04.52-.056h.044c.053 0 .105-.04.158-.04.186-.04.38-.056.56-.085.061 0 .109 0 .174-.04.206-.04.419-.06.63-.1H215.185c.424-.082.838-.162 1.257-.267 1.216.449 2.483.676 3.851.676l-9.702.04z" fill="#1d60b5"/><path d="M202.019 99.765v-.04a121.102 121.102 0 0 1-8.3 7.274 95.323 95.323 0 0 1-4.335 3.257c1.216 1.454 2.453 2.817 3.756 4.058 1.978 1.918 4.093 3.534 6.4 4.78.526-.258 1.05-.54 1.56-.837 2.353-1.373 4.463-3.226 6.457-5.659-2.065-3.524-3.877-7.89-5.528-12.838" fill="#175fab"/><path d="M1222.034 1834.495h-15.677c-.848.04-1.67.07-2.484.122-.383.823-.777 1.646-1.156 2.474-12.978 27.643-26.608 51.597-40.445 70.638-6.507 20.026-11.283 32.177-17.139 39.325 2.504 4.27 5.417 7.274 8.88 8.546.1-.04.182-.04.273-.06h.055c.062 0 .127-.04.192-.04.142-.04.293-.065.435-.11.09-.04.166-.043.257-.072.131-.04.268-.07.389-.101.08-.04.161-.054.242-.07.202-.064.384-.113.576-.173.09-.04.186-.073.287-.097.111-.04.222-.07.323-.117.117-.04.233-.061.334-.105.09-.04.186-.065.272-.101.227-.081.45-.15.677-.239.06 0 .12-.056.187-.069.136-.057.277-.1.414-.161.05-.04.11-.044.176-.065.475-.198.964-.4 1.454-.62h.051a41.252 41.252 0 0 0 2.105-1.01c22.5-12.57 33.858-54.803 69.175-117.89h-9.864z" fill="url(#H)" transform="translate(-937.607 -1834.482)"/><path d="M89.12 2.785c.056 0 .107 0 .162.04.136 0 .273 0 .409.044h.136c.248.04.495.061.747.097.047 0 .087 0 .127.04.206.04.419.073.63.105.047 0 .107.04.157.04.485.097.98.198 1.454.324.045 0 .091.04.131.04.202.048.384.109.586.165.06 0 .106.04.161.05.238.06.46.12.692.197.01 0 .024 0 .051.04.197.06.399.137.606.206.08.04.156.057.232.077.141.06.298.121.434.178.081 0 .162.056.247.085.187.085.384.161.576.242.1.04.186.085.283.121.11.057.227.11.348.15l.307.145c.107.057.207.1.309.157 2.503 1.232 4.81 2.873 6.946 4.862.787-.828 1.61-1.57 2.463-2.237-4.67-3.311-9.96-5.2-16.063-5.2-.707 0-1.413.04-2.13.094" fill="#7dcbec"/><path d="M104.851 10.131a39.357 39.357 0 0 1 3.746 4.039 87.514 87.514 0 0 1 3.423-2.282 36.11 36.11 0 0 0-4.71-3.993 22.044 22.044 0 0 0-2.459 2.236" fill="#5ec5ed"/><path d="M1998.949 85.842c.142.012.282.017.422.017 1.209 0 2.257-.374 3.182-1.029.976.77 2.156 1.039 3.795 1.039h-7.937c.183 0 .362-.011.538-.027" fill="url(#I)" transform="matrix(5.04815 0 0 -5.04815 -10001.867 436.128)"/><path d="M2006.348 85.869c-1.639 0-2.819-.269-3.795-1.039a7.21 7.21 0 0 0 .932-.791c1.359.864 2.705 1.436 4.032 1.686a8.182 8.182 0 0 0 1.509.144h-2.678z" fill="url(#J)" transform="matrix(5.04815 0 0 -5.04815 -10001.867 436.128)"/><path d="M1162.29 1907.77c3.558-10.976 7.632-24.297 12.685-40.457 4.554-14.559 12.616-25.442 27.755-30.193.4-.812.777-1.65 1.166-2.473-24.68 1.479-36.215 14.033-42.02 32.626-10.152 32.46-16.301 53.5-22.223 66.908 7.563-7.229 15.125-16.104 22.636-26.412" fill="url(#K)" transform="translate(-937.607 -1834.482)"/></svg>