<svg id="Calque_1" xmlns="http://www.w3.org/2000/svg" viewBox="0 0 107.8 200.7"><style>.st0{enable-background:new}</style><path class="st0" d="M75.2 56.9v5c0 1.4-.6 2.7-1.5 3.6-.9.9-2.2 1.5-3.6 1.5h-6.6s.1 0 .1.1c.2.2.3.5.3.8 0 .3-.1.6-.3.8-.2.2-.5.3-.8.3H61v4.7h4.4c.4 0 .8.2 1 .4.3.3.4.6.4 1s-.2.8-.4 1l-.2.2h5.9c1.6 0 3.1.7 4.1 1.7 1.1 1.1 1.7 2.5 1.7 4.1l-.2 2.9h5.7c1 0 1.9.4 2.6 1.1.2.2.4.5.6.7l.6-.5.1-.1.1.1 11.9 15.3.3-.1c.4-.1.8-.1 1.2.1.3.2.6.5.8.9l3.7 10.5c.1.4.1.8-.1 1.2-.2.3-.5.6-.9.8l-3.2 1.1 1.6 10.7c.7.6 1.2 1.5 1.4 2.5.2 1.1-.1 2.2-.8 3.1l-.1.1c1 .3 1.8.9 2.5 1.6 1.2 1.2 2 3 2 4.8v3.4c0 1.9-.8 3.6-2 4.8-.5.5-1 .8-1.5 1.2.2.8.2 1.7-.1 2.5l-3.2 8.3c-.4 1-1.1 1.8-2.1 2.2-.9.4-2 .5-3 .1s-1.8-1.1-2.2-2.1c-.4-.9-.5-2-.1-3l2.8-7.2c-1.4-.2-2.7-.9-3.7-1.9-.8-.8-1.4-1.8-1.7-2.9l-4.4 2.8c-.1 0-.1.1-.2.1-.6.3-1.3.3-1.9.1-.6-.2-1.2-.6-1.6-1.2 0-.1-.1-.1-.1-.2-.3-.7-.4-1.4-.2-2 .2-.7.7-1.3 1.3-1.7l6.8-4.4c.2-1.4.9-2.7 1.9-3.6 1-1 2.3-1.7 3.7-1.9-.3-.5-.5-1.1-.6-1.7-.2-1.1.1-2.2.8-3.1.1-.1.2-.3.4-.4l-1.3-9-1.8.6c-.4.1-.8.1-1.2-.1-.3-.2-.6-.5-.8-.9L88 107.2c-.1-.4-.1-.8.1-1.2.2-.4.5-.6.9-.8h.1l-9.8-12.7-.1-.1.1-.1.1-.1h-2.3l-1 15.1c0 1.9-.8 3.5-2 4.8a6.8 6.8 0 0 1-4.8 2H68v6.6c.8.2 1.5.6 2.1 1.1.7.7 1.2 1.8 1.2 2.9v5.3c0 1.1-.5 2.1-1.2 2.9-.5.6-1.3.9-2 1.1-.1.4-.2.8-.3 1.3l9.9 9.5c2.5.6 4.3 2.9 4.3 5.5v4.8c0 2.3-1.4 4.3-3.3 5.2v15.6c3.2 1.7 5.5 5.1 5.5 9V200.7H63.6V184.9c0-2.8 1.1-5.4 3-7.2.7-.7 1.6-1.3 2.5-1.8v-15.6c-1.9-.9-3.3-2.8-3.3-5l-10.2-9.8c-.5.1-1.1.1-1.6.1s-1.1 0-1.6-.1l-10.2 9.8c-.1 2.2-1.4 4.1-3.3 5v15.6c.9.5 1.7 1.1 2.5 1.8 1.8 1.8 3 4.4 3 7.2V200.7H23.9V184.9c0-3.9 2.2-7.3 5.5-9v-15.6c-2-.9-3.3-2.9-3.3-5.2v-4.8c0-2.6 1.8-4.9 4.3-5.5l9.9-9.5c-.1-.4-.2-.8-.3-1.3-.8-.2-1.5-.6-2-1.1-.7-.7-1.2-1.8-1.2-2.9v-5.3c0-1.1.5-2.1 1.2-2.9.6-.6 1.3-1 2.1-1.1v-6.6h-1.6c-3.7 0-6.7-3-6.7-6.7l-1-15.1h-2.3.1l.1.1-.1.1-8.7 12.8c.3.1.6.4.7.7.2.3.2.8.1 1.2L17 117.7c-.3.8-1.1 1.2-1.9.9l-2.6-.9L11 127c.1.1.2.3.4.4.6.9.9 2 .8 3.1-.1.6-.3 1.2-.6 1.7 1.4.2 2.7.9 3.7 1.9 1 1 1.7 2.2 1.9 3.6l6.8 4.4c.7.4 1.1 1 1.3 1.7.2.7.2 1.4-.2 2 0 .1-.1.1-.1.2-.4.6-.9 1-1.6 1.2-.6.2-1.3.2-1.9-.1-.1 0-.1-.1-.2-.1l-4.4-2.8c-.3 1.1-.9 2.1-1.7 2.9-1 1-2.3 1.7-3.7 1.9l2.8 7.2c.4 1 .3 2.1-.1 3-.4.9-1.2 1.7-2.2 2.1-1 .4-2.1.3-3-.1-.9-.4-1.7-1.2-2.1-2.2l-3.2-8.3c-.3-.8-.3-1.7-.1-2.5-.6-.3-1.1-.7-1.5-1.2a6.8 6.8 0 0 1-2-4.8V139c0-1.9.8-3.6 2-4.8.7-.7 1.6-1.3 2.5-1.6l-.1-.1c-.6-.9-.9-2-.8-3.1.2-1 .7-1.9 1.4-2.5l1.6-11-2.2-.9c-.4-.1-.7-.4-.9-.8-.2-.4-.2-.8-.1-1.2l3.7-10.5c.1-.4.4-.7.8-.9.3-.2.7-.2 1.1-.1l.8.3 10.1-15 .1-.1.1.1.8.5c.2-.5.5-.9.8-1.2.7-.7 1.6-1.1 2.6-1.1h5.7l-.1-2.8c0-1.6.7-3.1 1.7-4.1 1.1-1.1 2.5-1.7 4.1-1.7h5.9c-.1-.1-.2-.1-.2-.2-.3-.3-.4-.6-.4-1s.2-.8.4-1c.3-.3.6-.4 1-.4h4.4v-4.7h-1.8c-.3 0-.6-.1-.8-.3-.2-.2-.3-.5-.3-.8 0-.3.1-.6.3-.8 0 0 .1 0 .1-.1h-6.5c-1.4 0-2.7-.6-3.6-1.5-.9-.9-1.5-2.2-1.5-3.6v-5H32c-3.2 0-6.1-1.3-8.3-3.4-1.7-1.7-2.9-4-3.3-6.5-1.2-.7-2.1-1.7-2.8-2.9-.3-.6-.6-1.2-.8-1.9h-.7c-.3 0-.5-.1-.7-.3-.2-.2-.3-.4-.3-.7V39c0-.2 0-.3.1-.5L7.6 7.7c-.8.1-1.7-.1-2.4-.5-.8-.5-1.4-1.3-1.7-2.4C3 2.8 4.3.7 6.3.2c1-.2 2.1-.1 2.9.4.8.6 1.5 1.4 1.7 2.4.4 1.8-.5 3.7-2.2 4.4L16.2 38h.5c.2-.7.4-1.3.8-1.9.7-1.2 1.7-2.2 2.8-2.9.2-.8.4-1.6.7-2.4.6-1.4 1.5-2.7 2.5-3.8 2.6-5.9 6.9-11 12.2-14.5C41 9.1 47.3 7.2 53.9 7.2c6.7 0 12.9 2 18.1 5.4 5.4 3.5 9.6 8.5 12.2 14.5 1.1 1.1 1.9 2.4 2.5 3.8.3.7.5 1.5.7 2.3 1.2.7 2.2 1.7 2.8 2.9.3.6.6 1.2.8 1.9h.5L99 7.7c-.8-.3-1.4-.9-1.9-1.6-.5-.9-.7-2-.5-3.1.3-1.1 1-2 1.8-2.5.9-.5 2-.7 3.1-.5 1.1.3 2 1 2.5 1.8.5.9.7 2 .5 3.1-.3 1.1-1 2-1.8 2.5s-1.7.7-2.6.6l-7.5 30.6c.1.1.1.3.1.4v2.1c0 .3-.1.5-.3.7-.2.2-.4.3-.7.3H91c-.2.7-.4 1.3-.8 1.9-.7 1.2-1.6 2.2-2.8 2.9-.4 2.5-1.6 4.8-3.3 6.5-2.1 2.1-5 3.4-8.3 3.4l-.6.1zm-5.9-22.3c-1.5 0-2.8.6-3.8 1.6s-1.6 2.3-1.6 3.8c0 3 2.4 5.4 5.4 5.4 1.5 0 2.8-.6 3.8-1.6s1.6-2.3 1.6-3.8c0-3-2.4-5.4-5.4-5.4zm-30.8 0c-3 0-5.4 2.4-5.4 5.4 0 3 2.4 5.4 5.4 5.4 3 0 5.4-2.4 5.4-5.4 0-3-2.4-5.4-5.4-5.4zm25.9 52.2H43.6c-.2 0-.4.1-.6.2-.1.1-.2.4-.2.6V92c0 .2.1.4.2.6.1.1.3.2.6.2h20.8c.2 0 .4-.1.6-.2.1-.1.2-.3.2-.6v-4.4c0-.2-.1-.4-.2-.6-.2-.1-.4-.2-.6-.2zm9.8-59.6H33.6c-5 0-9.1 4.1-9.1 9.1v7.9c0 2.5 1 4.8 2.7 6.4 1.6 1.6 3.9 2.7 6.4 2.7h40.6c2.5 0 4.8-1 6.4-2.7 1.6-1.6 2.7-3.9 2.7-6.4v-7.9c0-5-4.1-9.1-9.1-9.1zM68 59.1H39.9v4H68v-4z"/></svg>